<svg width="191" height="50" viewBox="0 0 191 50" fill="none" xmlns="http://www.w3.org/2000/svg">
<path d="M1.8 34V8.8H11.376C12.696 8.8 13.848 9.136 14.832 9.808C15.816 10.456 16.572 11.32 17.1 12.4C17.652 13.48 17.928 14.656 17.928 15.928C17.928 16.696 17.808 17.488 17.568 18.304C17.328 19.12 16.968 19.876 16.488 20.572C17.304 21.244 17.94 22.084 18.396 23.092C18.852 24.1 19.08 25.18 19.08 26.332C19.08 27.268 18.9 28.192 18.54 29.104C18.204 30.016 17.724 30.844 17.1 31.588C16.5 32.308 15.792 32.896 14.976 33.352C14.184 33.784 13.332 34 12.42 34H1.8ZM6.228 19.24H11.268C11.7 19.24 12.084 19.072 12.42 18.736C12.756 18.4 13.02 17.98 13.212 17.476C13.428 16.972 13.536 16.456 13.536 15.928C13.536 15.232 13.344 14.62 12.96 14.092C12.576 13.564 12.048 13.3 11.376 13.3H6.228V19.24ZM6.228 29.5H12.42C12.804 29.5 13.164 29.344 13.5 29.032C13.836 28.696 14.112 28.288 14.328 27.808C14.544 27.328 14.652 26.836 14.652 26.332C14.652 25.564 14.448 24.916 14.04 24.388C13.656 23.836 13.152 23.56 12.528 23.56H6.228V29.5ZM38.1713 34H33.8513V32.596C33.5633 33.172 33.0113 33.604 32.1953 33.892C31.4033 34.18 30.4913 34.324 29.4593 34.324C28.4513 34.324 27.4673 34.192 26.5073 33.928C25.5713 33.64 24.8033 33.232 24.2033 32.704C22.7153 31.36 21.9713 29.368 21.9713 26.728V16H26.2913V26.728C26.2913 27.952 26.6513 28.84 27.3713 29.392C28.1153 29.92 29.0393 30.184 30.1433 30.184C30.6953 30.184 31.2593 30.064 31.8353 29.824C32.4113 29.584 32.8913 29.212 33.2753 28.708C33.6593 28.204 33.8513 27.544 33.8513 26.728V16H38.1713V34ZM44.1847 40.264V35.944C45.0727 35.968 45.8287 35.824 46.4527 35.512C47.0767 35.224 47.5447 34.624 47.8567 33.712L41.4127 16H46.1287L50.3407 28.744L54.2287 16H59.0167L53.4007 31.372C52.8487 32.884 52.3207 34.192 51.8167 35.296C51.3367 36.4 50.7847 37.312 50.1607 38.032C49.5607 38.776 48.7807 39.328 47.8207 39.688C46.8847 40.072 45.6727 40.264 44.1847 40.264ZM86.5688 21.328C86.5688 23.128 86.2448 24.82 85.5968 26.404C84.9728 27.964 84.0968 29.332 82.9688 30.508C81.8408 31.684 80.5328 32.608 79.0448 33.28C77.5568 33.952 75.9608 34.288 74.2568 34.288C72.5288 34.288 70.9208 33.952 69.4328 33.28C67.9448 32.584 66.6368 31.648 65.5088 30.472C64.3808 29.272 63.4928 27.892 62.8447 26.332C62.2208 24.748 61.9088 23.08 61.9088 21.328C61.9088 19.576 62.2328 17.932 62.8808 16.396C63.5288 14.836 64.4288 13.468 65.5808 12.292C66.7328 11.092 68.0528 10.156 69.5408 9.484C71.0288 8.812 72.6008 8.476 74.2568 8.476C75.9608 8.476 77.5448 8.812 79.0088 9.484C80.4968 10.156 81.8048 11.092 82.9328 12.292C84.0848 13.468 84.9728 14.836 85.5968 16.396C86.2448 17.932 86.5688 19.576 86.5688 21.328ZM82.1048 21.328C82.1048 19.744 81.7448 18.304 81.0248 17.008C80.3288 15.712 79.3808 14.68 78.1808 13.912C77.0048 13.12 75.6968 12.724 74.2568 12.724C72.8168 12.724 71.4968 13.12 70.2968 13.912C69.0968 14.704 68.1368 15.76 67.4168 17.08C66.7208 18.376 66.3728 19.792 66.3728 21.328C66.3728 22.912 66.7208 24.364 67.4168 25.684C68.1368 27.004 69.0968 28.06 70.2968 28.852C71.4968 29.644 72.8168 30.04 74.2568 30.04C75.7208 30.04 77.0408 29.644 78.2168 28.852C79.3928 28.06 80.3288 27.004 81.0248 25.684C81.7448 24.34 82.1048 22.888 82.1048 21.328ZM105.996 34H101.676V23.488C101.676 22.504 101.484 21.772 101.1 21.292C100.74 20.788 100.284 20.452 99.7321 20.284C99.2041 20.116 98.6881 20.032 98.1841 20.032C97.7041 20.032 97.1401 20.116 96.4921 20.284C95.8681 20.452 95.3161 20.788 94.8361 21.292C94.3561 21.772 94.1161 22.504 94.1161 23.488V34H89.7961V16H94.1161V17.296C94.5241 16.744 95.1601 16.36 96.0241 16.144C96.8881 15.904 97.7161 15.784 98.5081 15.784C100.044 15.784 101.364 16.108 102.468 16.756C103.596 17.404 104.46 18.304 105.06 19.456C105.684 20.608 105.996 21.952 105.996 23.488V34ZM109.238 34V8.8H116.222L122.162 24.712L128.102 8.8H135.086V34H130.766V14.092L124.214 30.4H120.146L113.558 14.092V34H109.238ZM143.882 34.18C142.058 34.084 140.678 33.568 139.742 32.632C138.806 31.672 138.338 30.352 138.338 28.672C138.338 27.448 138.65 26.404 139.274 25.54C139.898 24.652 140.726 23.956 141.758 23.452C142.79 22.948 143.93 22.636 145.178 22.516C146.45 22.396 147.734 22.48 149.03 22.768V21.652C149.03 20.884 148.718 20.332 148.094 19.996C147.47 19.66 146.702 19.504 145.79 19.528C144.902 19.552 144.002 19.732 143.09 20.068C142.202 20.38 141.482 20.836 140.93 21.436L138.518 18.808C139.43 17.92 140.51 17.224 141.758 16.72C143.006 16.216 144.29 15.928 145.61 15.856C146.954 15.784 148.214 15.94 149.39 16.324C150.59 16.708 151.574 17.332 152.342 18.196C152.942 18.868 153.278 19.756 153.35 20.86C153.422 21.964 153.458 23.176 153.458 24.496V34H149.066V32.344C148.322 33.04 147.494 33.532 146.582 33.82C145.67 34.084 144.77 34.204 143.882 34.18ZM148.922 28.924V25.828C146.426 25.636 144.686 25.792 143.702 26.296C142.742 26.8 142.262 27.58 142.262 28.636C142.262 29.308 142.49 29.8 142.946 30.112C143.426 30.4 144.014 30.544 144.71 30.544C145.43 30.52 146.162 30.376 146.906 30.112C147.674 29.824 148.346 29.428 148.922 28.924ZM161.37 41.2H157.05V16H161.37V16.972C162.738 16.156 164.142 15.796 165.582 15.892C167.022 15.964 168.354 16.408 169.578 17.224C170.802 18.04 171.786 19.144 172.53 20.536C173.274 21.928 173.646 23.524 173.646 25.324C173.646 26.956 173.274 28.444 172.53 29.788C171.81 31.132 170.826 32.212 169.578 33.028C168.354 33.82 166.974 34.228 165.438 34.252C165.078 34.252 164.634 34.228 164.106 34.18C163.578 34.132 163.062 34.048 162.558 33.928C162.078 33.784 161.682 33.604 161.37 33.388V41.2ZM161.37 29.32C162.762 29.968 164.058 30.22 165.258 30.076C166.458 29.932 167.43 29.452 168.174 28.636C168.918 27.796 169.29 26.692 169.29 25.324C169.29 23.74 168.894 22.492 168.102 21.58C167.334 20.668 166.35 20.152 165.15 20.032C163.95 19.912 162.69 20.248 161.37 21.04V29.32ZM176.167 31.552L178.687 28.852C179.959 29.956 181.267 30.508 182.611 30.508C182.995 30.508 183.343 30.472 183.655 30.4C183.991 30.304 184.267 30.16 184.483 29.968C184.771 29.704 184.939 29.392 184.987 29.032C185.035 28.648 185.035 28.336 184.987 28.096C184.891 27.664 184.591 27.328 184.087 27.088C183.607 26.824 183.007 26.596 182.287 26.404C181.591 26.188 180.871 25.924 180.127 25.612C179.383 25.3 178.723 24.88 178.147 24.352C177.211 23.464 176.671 22.528 176.527 21.544C176.407 20.536 176.599 19.6 177.103 18.736C177.631 17.872 178.399 17.176 179.407 16.648C180.415 16.096 181.591 15.82 182.935 15.82C184.207 15.82 185.347 16.048 186.355 16.504C187.363 16.936 188.167 17.5 188.767 18.196L186.031 20.644C185.647 20.284 185.167 20.02 184.591 19.852C184.039 19.66 183.499 19.564 182.971 19.564C182.419 19.564 181.939 19.684 181.531 19.924C181.123 20.14 180.919 20.524 180.919 21.076C180.919 21.508 181.087 21.856 181.423 22.12C181.759 22.384 182.191 22.612 182.719 22.804C183.271 22.996 183.859 23.2 184.483 23.416C185.131 23.608 185.743 23.86 186.319 24.172C187.063 24.556 187.687 25.108 188.191 25.828C188.695 26.524 188.947 27.436 188.947 28.564C188.947 29.788 188.647 30.82 188.047 31.66C187.471 32.5 186.703 33.148 185.743 33.604C184.783 34.036 183.727 34.252 182.575 34.252C181.447 34.252 180.319 34.036 179.191 33.604C178.087 33.148 177.079 32.464 176.167 31.552Z" fill="url(#paint0_linear_2964_19892)"/>
<path d="M118 48L187.998 47.4815" stroke="black" stroke-width="4" stroke-linecap="round"/>
<defs>
<linearGradient id="paint0_linear_2964_19892" x1="0" y1="20.5" x2="191" y2="20.5" gradientUnits="userSpaceOnUse">
<stop stop-color="#5D47E8"/>
<stop offset="0.348697" stop-color="#9763C1"/>
<stop offset="0.674307" stop-color="#454545"/>
<stop offset="1" stop-color="#666666"/>
</linearGradient>
</defs>
</svg>
